Coordinates
version=1
nRows=10
nColumns=40
inDegrees=yes

Units are S.I. units (second, meters, Newtons, ...)
Angles are in degrees.

endheader
time	pelvis_tilt	pelvis_list	pelvis_rotation	pelvis_tx	pelvis_ty	pelvis_tz	hip_flexion_r	hip_adduction_r	hip_rotation_r	knee_angle_r	knee_angle_r_beta	ankle_angle_r	subtalar_angle_r	mtp_angle_r	hip_flexion_l	hip_adduction_l	hip_rotation_l	knee_angle_l	knee_angle_l_beta	ankle_angle_l	subtalar_angle_l	mtp_angle_l	lumbar_extension	lumbar_bending	lumbar_rotation	arm_flex_r	arm_add_r	arm_rot_r	elbow_flex_r	pro_sup_r	wrist_flex_r	wrist_dev_r	arm_flex_l	arm_add_l	arm_rot_l	elbow_flex_l	pro_sup_l	wrist_flex_l	wrist_dev_l
     50.51000000	     -1.86445829	     -2.76175696	     -1.15071124	      0.98472013	      0.93901509	      0.40017940	     30.41839187	     -8.45133713	     -6.06475052	     65.45794832	     65.45794832	      5.68622390	    -13.16059829	     -0.29891667	     10.03807809	     -1.95187152	    -12.33951427	     16.55800978	     16.55800978	     11.95231842	     -3.91030908	     -4.53751606	     -8.40838837	      3.37873077	      1.11419189	      4.08160332	    -12.55717104	     -2.87639016	     38.38588495	     45.09901557	      0.00000000	      0.00000000	     16.50246315	    -12.15830020	     -0.86893529	     37.33460347	     44.93225844	      0.00000000	      0.00000000
     50.52207143	     -1.80569051	     -2.84903651	     -1.31226426	      0.98346662	      0.93933313	      0.39961632	     31.18062853	     -8.24604300	     -5.91681844	     63.27577046	     63.27577046	      5.66280561	    -12.89383845	     -0.39927024	      9.22958356	     -1.91919790	    -12.40145845	     16.03503404	     16.03503404	     12.19470500	     -3.83504745	     -4.61416870	     -8.58692572	      3.52449691	      1.28703014	      1.87470351	    -12.85202909	     -2.94466452	     36.74889839	     45.16515880	      0.00000000	      0.00000000	     17.98985933	    -12.33990729	     -1.15917384	     38.64607827	     45.00808692	      0.00000000	      0.00000000
     50.53414286	     -1.76728811	     -2.90324982	     -1.46510067	      0.98222357	      0.93956487	      0.39906455	     31.76660852	     -8.06125761	     -5.80739528	     60.75791649	     60.75791649	      5.06297820	    -12.86841039	     -1.85321384	      8.40427796	     -1.81558224	    -12.33259143	     15.38959184	     15.38959184	     12.13161129	     -4.03651792	     -5.17792777	     -8.74262924	      3.63116436	      1.00901180	      0.73186935	    -12.60754143	     -4.37716584	     32.98712435	     45.45281408	      0.00000000	      0.00000000	     18.90324575	    -12.74340694	     -2.03067532	     40.80931261	     45.21706426	      0.00000000	      0.00000000
     50.54621429	     -1.70609822	     -2.99329610	     -1.60654057	      0.98105591	      0.93975052	      0.39855362	     32.18631364	     -7.81100930	     -5.72221225	     58.09684526	     58.09684526	      5.00656822	    -12.51794668	     -1.67656709	      7.61190582	     -1.78679988	    -12.39694076	     14.88410429	     14.88410429	     12.39208605	     -3.95574632	     -5.25690145	     -8.91629650	      3.78147194	      1.15395089	     -1.31173007	    -12.87041290	     -4.60228075	     31.41292390	     45.52886111	      0.00000000	      0.00000000	     20.34647581	    -12.88879126	     -2.34955632	     42.07295490	     45.29375690	      0.00000000	      0.00000000
     50.55828571	     -1.67031435	     -3.08561389	     -1.74045147	      0.97988401	      0.93984184	      0.39810359	     32.48845754	     -7.54971605	     -5.69449849	     55.22427985	     55.22427985	      4.91977205	    -12.05671741	     -1.44652683	      6.85837572	     -1.76362265	    -12.43598378	     14.38393986	     14.38393986	     12.58082635	     -3.87335432	     -5.36834317	     -9.06984237	      3.97157863	      1.22590514	     -3.18240137	    -13.08855750	     -4.89257996	     29.73778413	     45.61525956	      0.00000000	      0.00000000	     21.65277841	    -13.10401576	     -2.70700861	     43.41645122	     45.36916405	      0.00000000	      0.00000000
     50.57035714	     -1.69960291	     -3.10445570	     -1.88328575	      0.97877084	      0.93971132	      0.39779129	     32.71316713	     -7.34326120	     -5.70192693	     52.12250405	     52.12250405	      4.58724083	    -11.61608486	     -1.90501153	      6.12171083	     -1.63791153	    -12.36423133	     13.72817287	     13.72817287	     12.41883004	     -4.11101372	     -6.20411773	     -9.15433389	      4.01762649	      0.63089416	     -3.51097736	    -12.79233942	     -7.43654958	     25.48281582	     46.05235051	      0.00000000	      0.00000000	     21.95727115	    -13.59375499	     -4.06119332	     46.34828238	     45.61431094	      0.00000000	      0.00000000
     50.58242857	     -1.88309408	     -2.92745558	     -2.01816821	      0.97751030	      0.93910856	      0.39756846	     33.09540952	     -7.28599760	     -5.61849879	     49.01791146	     49.01791146	      4.57491582	    -11.03374374	     -1.47942022	      5.82651913	     -1.39418322	    -12.47029831	     13.61040598	     13.61040598	     12.69449525	     -4.09771557	     -6.32786293	     -9.01580481	      3.85539275	      0.13191202	     -5.08720645	    -13.03585368	     -7.54180496	     24.84287479	     46.07735900	      0.00000000	      0.00000000	     23.05483645	    -14.27319563	     -4.29194338	     46.95193691	     45.65561785	      0.00000000	      0.00000000
     50.59450000	     -1.73087065	     -3.14681667	     -2.18623304	      0.97674278	      0.93929044	      0.39758643	     32.71266094	     -6.84771393	     -5.95131297	     45.42591711	     45.42591711	      4.52282820	    -10.04836588	     -1.11008333	      4.75056918	     -1.50736751	    -12.59901748	     12.78615499	     12.78615499	     12.88657929	     -3.74932299	     -6.41354165	     -9.35693550	      4.15493122	      1.00306443	     -7.18131521	    -13.31869511	     -7.93430327	     23.40349692	     46.16999223	      0.00000000	      0.00000000	     24.34786852	    -13.82950473	     -4.67199089	     49.10006248	     45.73700053	      0.00000000	      0.00000000
     50.60657143	     -1.86683976	     -3.15487209	     -2.32163944	      0.97577878	      0.93878186	      0.39766000	     32.61874729	     -6.58884509	     -6.26392326	     41.82404243	     41.82404243	      4.42470893	     -9.03234587	     -0.68541239	      4.21755965	     -1.45039910	    -12.71628392	     12.35294507	     12.35294507	     13.08165718	     -3.56773520	     -6.60573107	     -9.31353187	      4.22115099	      1.00824518	     -8.77422428	    -13.54825073	     -8.28766106	     22.51607823	     46.23708166	      0.00000000	      0.00000000	     25.22718084	    -14.04642924	     -5.02725531	     50.62128856	     45.80153574	      0.00000000	      0.00000000
     50.61864286	     -1.94458247	     -3.05883076	     -2.52994317	      0.97502348	      0.93819492	      0.39794271	     32.36997137	     -6.39296993	     -6.62591033	     38.19339781	     38.19339781	      4.25335458	     -7.74394837	     -0.61057488	      3.49831028	     -1.26992737	    -12.98839510	     11.69780123	     11.69780123	     13.06034834	     -3.27964433	     -7.32060132	     -9.38203704	      4.08635522	      0.85336673	     -9.93750154	    -13.59859742	    -10.00592333	     21.31770791	     46.49260806	      0.00000000	      0.00000000	     25.10288344	    -14.38940981	     -6.13098296	     54.70733833	     45.98574578	      0.00000000	      0.00000000
